# Blender 4.5.3 LTS
# www.blender.org
mtllib Bloc.mtl
o Cubo
v -1.614112 -0.663333 -0.699497
v -1.614112 0.663333 -0.699497
v -1.614112 -0.663333 0.699497
v -1.614112 0.663333 0.699497
v 1.614112 -0.663333 -0.699497
v 1.614112 0.663333 -0.699497
v 1.614112 -0.663333 0.699497
v 1.614112 0.663333 0.699497
v 1.379839 -0.663333 0.699497
v 1.379839 0.663333 0.699497
v 1.379839 -0.663333 -0.699497
v 1.379839 0.663333 -0.699497
v -1.614112 -0.663333 -0.490487
v -1.614112 0.663333 -0.490487
v 1.614112 -0.663333 -0.490487
v 1.614112 0.663333 -0.490487
v 1.379839 0.663333 -0.490487
v 1.379839 -0.663333 -0.490487
v -1.614112 0.663333 0.485691
v 1.614112 -0.663333 0.485691
v -1.614112 -0.663333 0.485691
v 1.614112 0.663333 0.485691
v 1.379839 0.663333 0.485691
v 1.379839 -0.663333 0.485691
v -1.374907 -0.663333 0.699497
v -1.374907 0.663333 -0.699497
v -1.374907 0.663333 0.699497
v -1.374907 -0.663333 -0.699497
v -1.374907 -0.663333 -0.490487
v -1.374907 0.663333 -0.490487
v -1.374907 0.663333 0.485691
v -1.374907 -0.663333 0.485691
v 1.076623 0.663333 0.699497
v 1.076623 -0.663333 -0.699497
v 1.076623 0.663333 -0.490487
v 1.076623 0.663333 0.485691
v 1.076623 -0.663333 0.699497
v 1.076623 0.663333 -0.699497
v 1.076623 -0.663333 -0.490487
v 1.076623 -0.663333 0.485691
v -1.089386 -0.663333 0.699497
v -1.089386 0.663333 -0.699497
v -1.089386 -0.663333 -0.490487
v -1.089386 -0.663333 0.485691
v -1.089386 0.663333 0.699497
v -1.089386 -0.663333 -0.699497
v -1.089386 0.663333 -0.490487
v -1.089386 0.663333 0.485691
v 0.160620 0.663333 0.699497
v 0.160620 -0.663333 -0.699497
v 0.160620 0.663333 -0.490487
v 0.160620 0.663333 0.485691
v 0.160620 -0.663333 0.699497
v 0.160620 0.663333 -0.699497
v 0.160620 -0.663333 -0.490487
v 0.160620 -0.663333 0.485691
v -0.170507 -0.663333 0.699497
v -0.170507 0.663333 -0.699497
v -0.170507 -0.663333 -0.490487
v -0.170507 -0.663333 0.485691
v -0.170507 0.663333 0.699497
v -0.170507 -0.663333 -0.699497
v -0.170507 0.663333 -0.490487
v -0.170507 0.663333 0.485691
vn -1.0000 -0.0000 -0.0000
vn -0.0000 -0.0000 1.0000
vn 1.0000 -0.0000 -0.0000
vn -0.0000 -0.0000 -1.0000
vn -0.0000 -1.0000 -0.0000
vn -0.0000 1.0000 -0.0000
vt 0.276401 0.965194
vt 0.276401 0.784806
vt 0.303970 0.784806
vt 0.303970 0.965194
vt 0.215194 0.047897
vt 0.034807 0.047897
vt 0.034807 0.034806
vt 0.215194 0.034807
vt 0.470764 0.965194
vt 0.470764 0.784807
vt 0.497714 0.784807
vt 0.497714 0.965194
vt 0.215194 0.298173
vt 0.034807 0.298173
vt 0.034807 0.284807
vt 0.215194 0.284807
vt 0.311756 0.202103
vt 0.311756 0.215194
vt 0.284806 0.215194
vt 0.284806 0.202103
vt 0.311756 0.451827
vt 0.311756 0.465194
vt 0.284807 0.465194
vt 0.284807 0.451827
vt 0.311756 0.284806
vt 0.311756 0.297897
vt 0.284807 0.297897
vt 0.284807 0.284806
vt 0.311756 0.185160
vt 0.284806 0.185160
vt 0.215194 0.465194
vt 0.034806 0.465194
vt 0.034806 0.452103
vt 0.215194 0.452103
vt 0.215194 0.064840
vt 0.034807 0.064840
vt 0.437625 0.185160
vt 0.437625 0.202103
vt 0.842939 0.965194
vt 0.829848 0.965194
vt 0.829848 0.784807
vt 0.842939 0.784807
vt 0.677256 0.965194
vt 0.663890 0.965194
vt 0.663890 0.784807
vt 0.677256 0.784807
vt 0.034806 0.715194
vt 0.034806 0.534806
vt 0.160675 0.534806
vt 0.160675 0.715194
vt 0.925770 0.034806
vt 0.938861 0.034806
vt 0.938861 0.215194
vt 0.925770 0.215194
vt 0.567327 0.965194
vt 0.567327 0.784807
vt 0.594277 0.784807
vt 0.594277 0.965194
vt 0.373583 0.965194
vt 0.373583 0.784807
vt 0.401151 0.784807
vt 0.401151 0.965194
vt 0.465194 0.202103
vt 0.465194 0.215194
vt 0.437625 0.215194
vt 0.465194 0.451827
vt 0.465194 0.465194
vt 0.437625 0.465194
vt 0.437625 0.451827
vt 0.465194 0.284806
vt 0.465194 0.297897
vt 0.437625 0.297897
vt 0.437625 0.284806
vt 0.465194 0.185160
vt 0.230288 0.534806
vt 0.356157 0.534806
vt 0.356157 0.715194
vt 0.230288 0.715194
vt 0.465194 0.034806
vt 0.465194 0.048173
vt 0.437625 0.048173
vt 0.437625 0.034806
vt 0.465194 0.435873
vt 0.437625 0.435873
vt 0.311756 0.435873
vt 0.746869 0.965194
vt 0.746869 0.784807
vt 0.760235 0.784807
vt 0.760235 0.965194
vt 0.215194 0.215194
vt 0.034806 0.215194
vt 0.034806 0.201827
vt 0.215194 0.201827
vt 0.311756 0.034806
vt 0.311756 0.048173
vt 0.284806 0.048173
vt 0.284806 0.034806
vt 0.284807 0.435873
vt 0.215194 0.314127
vt 0.034807 0.314127
vt 0.034806 0.435160
vt 0.215194 0.435160
vt 0.311756 0.314840
vt 0.284807 0.314840
vt 0.437625 0.314840
vt 0.465194 0.314840
vt 0.465194 0.133975
vt 0.437625 0.133975
vt 0.034806 0.784807
vt 0.085991 0.784807
vt 0.085991 0.965194
vt 0.034806 0.965194
vt 0.215194 0.116025
vt 0.034806 0.116025
vt 0.311756 0.133975
vt 0.284806 0.133975
vt 0.311756 0.064127
vt 0.284806 0.064127
vt 0.034806 0.185873
vt 0.215194 0.185873
vt 0.437625 0.064127
vt 0.465194 0.064127
vt 0.215194 0.365472
vt 0.034806 0.365472
vt 0.311756 0.384528
vt 0.284807 0.384528
vt 0.660675 0.034806
vt 0.660675 0.215194
vt 0.534807 0.215194
vt 0.534807 0.034806
vt 0.465194 0.384528
vt 0.437625 0.384528
vt 0.465194 0.366025
vt 0.437625 0.366025
vt 0.206788 0.784807
vt 0.206788 0.965194
vt 0.155604 0.965194
vt 0.155604 0.784807
vt 0.311756 0.366025
vt 0.284807 0.366025
vt 0.034806 0.383975
vt 0.215194 0.383975
vt 0.311756 0.115472
vt 0.284806 0.115472
vt 0.215194 0.134528
vt 0.034806 0.134528
vt 0.437625 0.115472
vt 0.465194 0.115472
vt 0.534807 0.284806
vt 0.660675 0.284806
vt 0.660675 0.465193
vt 0.534807 0.465193
vt 0.781633 0.465193
vt 0.730288 0.465193
vt 0.730288 0.284806
vt 0.781633 0.284806
vt 0.660675 0.715194
vt 0.534807 0.715194
vt 0.534807 0.534806
vt 0.660675 0.534806
vt 0.730288 0.215194
vt 0.730288 0.034806
vt 0.856157 0.034806
vt 0.856157 0.215194
vt 0.730288 0.715194
vt 0.730288 0.534806
vt 0.781633 0.534806
vt 0.781633 0.715194
s 0
usemtl Base
f 21/1/1 3/4/1 4/3/1 19/2/1
f 9/5/2 7/8/2 8/7/2 10/6/2
f 15/9/3 5/12/3 6/11/3 16/10/3
f 28/13/4 1/16/4 2/15/4 26/14/4
f 18/17/5 11/20/5 5/19/5 15/18/5
f 30/21/6 26/24/6 2/23/6 14/22/6
f 16/25/6 6/28/6 12/27/6 17/26/6
f 39/29/5 34/30/5 11/20/5 18/17/5
f 5/31/4 11/34/4 12/33/4 6/32/4
f 37/35/2 9/5/2 10/6/2 33/36/2
f 40/37/5 39/29/5 18/17/5 24/38/5
f 24/39/4 23/42/4 22/41/4 20/40/4
f 29/43/2 30/46/2 14/45/2 13/44/2
f 24/47/3 18/50/3 17/49/3 23/48/3
f 17/51/2 18/54/2 15/53/2 16/52/2
f 1/55/1 13/58/1 14/57/1 2/56/1
f 7/59/3 20/62/3 22/61/3 8/60/3
f 9/63/5 24/38/5 20/65/5 7/64/5
f 27/66/6 31/69/6 19/68/6 4/67/6
f 8/70/6 22/73/6 23/72/6 10/71/6
f 37/74/5 40/37/5 24/38/5 9/63/5
f 30/75/1 29/78/1 32/77/1 31/76/1
f 3/79/5 21/82/5 32/81/5 25/80/5
f 45/83/6 48/84/6 31/69/6 27/66/6
f 48/84/6 47/85/6 30/21/6 31/69/6
f 32/86/4 21/89/4 19/88/4 31/87/4
f 3/90/2 25/93/2 27/92/2 4/91/2
f 13/94/5 1/97/5 28/96/5 29/95/5
f 47/85/6 42/98/6 26/24/6 30/21/6
f 46/99/4 28/13/4 26/14/4 42/100/4
f 11/34/4 34/102/4 38/101/4 12/33/4
f 17/26/6 12/27/6 38/104/6 35/103/6
f 23/72/6 17/26/6 35/103/6 36/105/6
f 10/71/6 23/72/6 36/105/6 33/106/6
f 53/107/5 56/108/5 40/37/5 37/74/5
f 51/109/2 55/112/2 39/111/2 35/110/2
f 53/113/2 37/35/2 33/36/2 49/114/2
f 55/115/5 50/116/5 34/30/5 39/29/5
f 29/95/5 28/96/5 46/118/5 43/117/5
f 25/93/2 41/120/2 45/119/2 27/92/2
f 32/81/5 29/95/5 43/117/5 44/121/5
f 25/80/5 32/81/5 44/121/5 41/122/5
f 62/123/4 46/99/4 42/100/4 58/124/4
f 63/125/6 58/126/6 42/98/6 47/85/6
f 51/127/3 52/130/3 56/129/3 55/128/3
f 61/131/6 64/132/6 48/84/6 45/83/6
f 33/106/6 36/105/6 52/134/6 49/133/6
f 52/135/4 36/138/4 40/137/4 56/136/4
f 35/103/6 38/104/6 54/140/6 51/139/6
f 34/102/4 50/142/4 54/141/4 38/101/4
f 59/143/5 62/144/5 50/116/5 55/115/5
f 57/145/2 53/113/2 49/114/2 61/146/2
f 60/147/5 59/143/5 55/115/5 56/108/5
f 57/148/5 60/147/5 56/108/5 53/107/5
f 41/122/5 44/121/5 60/147/5 57/148/5
f 35/149/1 39/152/1 40/151/1 36/150/1
f 41/120/2 57/145/2 61/146/2 45/119/2
f 43/117/5 46/118/5 62/144/5 59/143/5
f 49/133/6 52/134/6 64/132/6 61/131/6
f 52/134/6 51/139/6 63/125/6 64/132/6
f 51/139/6 54/140/6 58/126/6 63/125/6
f 50/142/4 62/123/4 58/124/4 54/141/4
f 59/153/2 63/156/2 47/155/2 43/154/2
f 43/157/3 47/160/3 48/159/3 44/158/3
f 59/161/1 60/164/1 64/163/1 63/162/1
f 60/165/4 44/168/4 48/167/4 64/166/4
